<svg xmlns="http://www.w3.org/2000/svg" width="1600" height="900" viewBox="0 0 1600 900" role="img" aria-label="Malha tecnica de engenharia">
  <rect width="1600" height="900" fill="#13343c"/>
  <path d="M0 720 L260 560 L520 680 L780 430 L1040 520 L1300 300 L1600 360" fill="none" stroke="#2dd4bf" stroke-width="6" opacity="0.85"/>
  <path d="M0 790 L250 640 L520 760 L810 500 L1060 600 L1320 380 L1600 450" fill="none" stroke="#f59e0b" stroke-width="3" opacity="0.7"/>
  <g stroke="#ffffff" stroke-width="1" opacity="0.12">
    <path d="M0 100 H1600M0 200 H1600M0 300 H1600M0 400 H1600M0 500 H1600M0 600 H1600M0 700 H1600M0 800 H1600"/>
    <path d="M100 0 V900M200 0 V900M300 0 V900M400 0 V900M500 0 V900M600 0 V900M700 0 V900M800 0 V900M900 0 V900M1000 0 V900M1100 0 V900M1200 0 V900M1300 0 V900M1400 0 V900M1500 0 V900"/>
  </g>
  <g fill="#ffffff" opacity="0.9">
    <circle cx="260" cy="560" r="9"/>
    <circle cx="520" cy="680" r="9"/>
    <circle cx="780" cy="430" r="9"/>
    <circle cx="1040" cy="520" r="9"/>
    <circle cx="1300" cy="300" r="9"/>
  </g>
</svg>

